<?xml version="1.0" encoding="UTF-8"?>
<svg width="114px" height="203px" viewBox="0 0 114 203" version="1.1" xmlns="http://www.w3.org/2000/svg" xmlns:xlink="http://www.w3.org/1999/xlink">
    <!-- Generator: Sketch 43.2 (39069) - http://www.bohemiancoding.com/sketch -->
    <title>blue-up</title>
    <desc>Created with Sketch.</desc>
    <defs></defs>
    <g id="Page-1" stroke="none" stroke-width="1" fill="none" fill-rule="evenodd">
        <path d="M-1.91471339,132.937762 C-6.2070376,131.68107 -10.0364354,129.690026 -13.4116964,126.964631 C-16.7869575,124.233092 -19.4971281,120.73033 -21.5334184,116.456345 C-23.5755686,112.176216 -24.5922488,107.014251 -24.5922488,100.97045 C-24.5922488,90.2009931 -21.3957125,82.0524625 -14.9938501,76.5248582 C-8.59491761,70.9941814 -0.265171734,68.2257703 10.0041773,68.2257703 C15.0670689,68.2257703 19.7754409,68.9631939 24.1380831,70.4380411 C28.4948654,71.9128882 32.2598051,74.0913604 35.4241123,76.9642398 C38.5884196,79.8432644 41.0847064,83.4166962 42.9129728,87.6937529 C44.7383094,91.9708097 45.6553725,96.9883627 45.6553725,102.740267 C45.6553725,108.341613 44.7763982,113.168665 43.0184498,117.23064 C41.2575714,121.283397 38.8316025,124.601803 35.740543,127.185859 C32.6465537,129.763768 29.0222499,131.68107 24.8764214,132.937762 C20.727663,134.18831 16.259544,134.81512 11.480854,134.81512 C6.83987004,134.81512 2.3746809,134.18831 -1.91471339,132.937762 M34.8967278,153.619421 C41.3630483,151.112181 46.8507774,147.538749 51.3511256,142.889908 C54.1374739,140.013956 56.487265,136.707841 58.4913263,133.066812 C63.0356231,137.592749 68.4120155,141.184616 74.6732421,143.774817 C82.6894871,147.093223 91.5143885,149.231751 101.147946,150.190402 C110.778574,151.149052 120.098631,151.628378 129.099327,151.628378 C133.456109,151.628378 137.396844,151.554635 140.912741,151.410223 C144.425708,151.259666 147.452309,150.854083 149.983755,150.190402 C152.515201,149.526721 154.484103,148.457456 155.890462,146.982609 C157.293891,145.507762 158,143.442976 158,140.791324 C158,133.856469 153.640288,130.092536 144.920863,129.50567 C141.261401,129.207628 136.83137,129.100087 131.630773,129.17383 C126.427245,129.247572 120.977605,129.17383 115.281852,128.952603 C109.586099,128.731375 103.890346,128.25205 98.1945927,127.514627 C92.4988396,126.77413 87.3978591,125.486712 82.9004409,123.646225 C78.3971629,121.796521 74.74356,119.218611 71.9308424,115.900205 C69.1151949,112.581799 67.7117661,108.270944 67.7117661,102.958421 C67.7117661,97.6520439 69.1151949,93.3350434 71.9308424,90.0166372 C74.74356,86.6982311 78.3971629,84.1172486 82.9004409,82.2767622 C87.3978591,80.427058 92.4988396,79.1396394 98.1945927,78.4022158 C103.890346,77.6647922 109.586099,77.1854669 115.281852,76.9642398 C120.977605,76.7430127 126.427245,76.6692704 131.630773,76.7430127 C136.83137,76.8167551 141.261401,76.7061415 144.920863,76.4142447 C153.640288,75.8212332 158,72.060373 158,65.1316639 C158,62.4738664 157.293891,60.4090803 155.890462,58.9342332 C154.484103,57.459386 152.515201,56.3901218 149.983755,55.7264406 C147.452309,55.0627593 144.425708,54.6541038 140.912741,54.5127642 C137.396844,54.3622069 133.456109,54.2884646 129.099327,54.2884646 C120.098631,54.2884646 110.778574,54.7677899 101.147946,55.7264406 C91.5143885,56.6850912 82.6894871,58.8236196 74.6732421,62.1420257 C68.4471745,64.7230083 63.0912915,68.2810771 58.5645741,72.7732158 C56.2675215,68.3025853 53.5046124,64.2897719 50.1908796,60.8146633 C45.3389417,55.7264406 39.5699408,51.8211682 32.8926665,49.0927009 C26.2124623,46.361161 18.8642376,45 10.8479926,45 C3.53199698,45 -3.429479,46.1768051 -10.0364354,48.5365606 C-16.6492516,50.8963161 -22.4827106,54.3990781 -27.5456022,59.0448467 C-32.6084939,63.6936879 -36.6166164,69.4455918 -39.5699698,76.3005586 C-42.5233233,83.1616705 -44,91.0859014 -44,100.085542 C-44,108.341613 -42.6610292,115.973947 -39.9918775,122.982544 C-37.3227257,129.984996 -33.525557,136.034942 -28.6003713,141.120092 C-23.6781156,146.208314 -17.7040207,150.190402 -10.6692968,153.069426 C-3.6375029,155.942306 4.30842423,157.380282 13.1684846,157.380282 C21.1847296,157.380282 28.4245475,156.126662 34.8967278,153.619421" id="blue-up" fill="#5EC1FE" transform="translate(57.000000, 101.190141) rotate(-270.000000) translate(-57.000000, -101.190141) "></path>
    </g>
</svg>