<?xml version="1.0" encoding="UTF-8"?>
<svg width="202px" height="113px" viewBox="0 0 202 113" version="1.1" xmlns="http://www.w3.org/2000/svg" xmlns:xlink="http://www.w3.org/1999/xlink">
    <!-- Generator: Sketch 43.2 (39069) - http://www.bohemiancoding.com/sketch -->
    <title>pink-left</title>
    <desc>Created with Sketch.</desc>
    <defs></defs>
    <g id="Page-1" stroke="none" stroke-width="1" fill="none" fill-rule="evenodd">
        <path d="M42.0852866,87.9377625 C37.7929624,86.6810698 33.9635646,84.6900261 30.5883036,81.9646314 C27.2130425,79.2330916 24.5028719,75.7303295 22.4665816,71.4563453 C20.4244314,67.176216 19.4077512,62.0142509 19.4077512,55.9704501 C19.4077512,45.2009931 22.6042875,37.0524625 29.0061499,31.5248582 C35.4050824,25.9941814 43.7348283,23.2257703 54.0041773,23.2257703 C59.0670689,23.2257703 63.7754409,23.9631939 68.1380831,25.4380411 C72.4948654,26.9128882 76.2598051,29.0913604 79.4241123,31.9642398 C82.5884196,34.8432644 85.0847064,38.4166962 86.9129728,42.6937529 C88.7383094,46.9708097 89.6553725,51.9883627 89.6553725,57.7402667 C89.6553725,63.3416133 88.7763982,68.1686652 87.0184498,72.2306401 C85.2575714,76.2833972 82.8316025,79.6018034 79.740543,82.1858585 C76.6465537,84.7637684 73.0222499,86.6810698 68.8764214,87.9377625 C64.727663,89.18831 60.259544,89.81512 55.480854,89.81512 C50.83987,89.81512 46.3746809,89.18831 42.0852866,87.9377625 M78.8967278,108.619421 C85.3630483,106.112181 90.8507774,102.538749 95.3511256,97.8899083 C98.1374739,95.0139563 100.487265,91.7078405 102.491326,88.0668116 C107.035623,92.5927488 112.412016,96.1846162 118.673242,98.7748166 C126.689487,102.093223 135.514388,104.231751 145.147946,105.190402 C154.778574,106.149052 164.098631,106.628378 173.099327,106.628378 C177.456109,106.628378 181.396844,106.554635 184.912741,106.410223 C188.425708,106.259666 191.452309,105.854083 193.983755,105.190402 C196.515201,104.526721 198.484103,103.457456 199.890462,101.982609 C201.293891,100.507762 202,98.4429759 202,95.7913236 C202,88.8564693 197.640288,85.0925365 188.920863,84.5056702 C185.261401,84.2076282 180.83137,84.1000872 175.630773,84.1738296 C170.427245,84.2475719 164.977605,84.1738296 159.281852,83.9526025 C153.586099,83.7313754 147.890346,83.2520501 142.194593,82.5146265 C136.49884,81.7741303 131.397859,80.4867117 126.900441,78.6462253 C122.397163,76.7965211 118.74356,74.2186112 115.930842,70.9002051 C113.115195,67.5817989 111.711766,63.2709436 111.711766,57.9584211 C111.711766,52.6520439 113.115195,48.3350434 115.930842,45.0166372 C118.74356,41.6982311 122.397163,39.1172486 126.900441,37.2767622 C131.397859,35.427058 136.49884,34.1396394 142.194593,33.4022158 C147.890346,32.6647922 153.586099,32.1854669 159.281852,31.9642398 C164.977605,31.7430127 170.427245,31.6692704 175.630773,31.7430127 C180.83137,31.8167551 185.261401,31.7061415 188.920863,31.4142447 C197.640288,30.8212332 202,27.060373 202,20.1316639 C202,17.4738664 201.293891,15.4090803 199.890462,13.9342332 C198.484103,12.459386 196.515201,11.3901218 193.983755,10.7264406 C191.452309,10.0627593 188.425708,9.65410376 184.912741,9.51276424 C181.396844,9.36220693 177.456109,9.28846457 173.099327,9.28846457 C164.098631,9.28846457 154.778574,9.7677899 145.147946,10.7264406 C135.514388,11.6850912 126.689487,13.8236196 118.673242,17.1420257 C112.447175,19.7230083 107.091291,23.2810771 102.564574,27.7732158 C100.267521,23.3025853 97.5046124,19.2897719 94.1908796,15.8146633 C89.3389417,10.7264406 83.5699408,6.82116816 76.8926665,4.09270089 C70.2124623,1.36116103 62.8642376,0 54.8479926,0 C47.531997,0 40.570521,1.17680514 33.9635646,3.53656061 C27.3507484,5.89631608 21.5172894,9.3990781 16.4543978,14.0448467 C11.3915061,18.6936879 7.38338362,24.4455918 4.43003017,31.3005586 C1.47667672,38.1616705 0,46.0859014 0,55.0855418 C0,63.3416133 1.33897076,70.9739474 4.00812253,77.9825441 C6.67727431,84.9849955 10.474443,91.0349415 15.3996287,96.1200917 C20.3218844,101.208314 26.2959793,105.190402 33.3307032,108.069426 C40.3624971,110.942306 48.3084242,112.380282 57.1684846,112.380282 C65.1847296,112.380282 72.4245475,111.126662 78.8967278,108.619421" id="pink-left" fill="#FF7C70"></path>
    </g>
</svg>